<svg xmlns="http://www.w3.org/2000/svg" viewBox="0 0 64 64" width="64" height="64">
  <circle cx="32" cy="32" r="31" fill="#1a2020"/>
  <g fill="#d0c8b0">
    <!-- Head -->
    <ellipse cx="32" cy="28" rx="14" ry="13" fill="#7a5a3a"/>
    <!-- Ears -->
    <ellipse cx="20" cy="16" rx="4" ry="6" fill="#6a4a2a"/>
    <ellipse cx="44" cy="16" rx="4" ry="6" fill="#6a4a2a"/>
    <!-- Inner ears -->
    <ellipse cx="20" cy="16" rx="2.5" ry="4" fill="#8a6a4a"/>
    <ellipse cx="44" cy="16" rx="2.5" ry="4" fill="#8a6a4a"/>
    <!-- Muzzle -->
    <ellipse cx="32" cy="34" rx="8" ry="6" fill="#8a6a4a"/>
    <!-- Nose -->
    <ellipse cx="32" cy="32" rx="4" ry="3" fill="#2a2020"/>
    <!-- Eyes -->
    <ellipse cx="24" cy="26" rx="2.5" ry="2" fill="#3a2a1a"/>
    <ellipse cx="40" cy="26" rx="2.5" ry="2" fill="#3a2a1a"/>
    <!-- Eye shine -->
    <circle cx="25" cy="25.5" r="0.8" fill="#6a5a3a"/>
    <circle cx="41" cy="25.5" r="0.8" fill="#6a5a3a"/>
    <!-- Mouth -->
    <path d="M28 37 Q32 40 36 37" fill="none" stroke="#2a2020" stroke-width="1"/>
    <!-- Chest -->
    <path d="M18 40 Q32 48 46 40 L46 56 Q32 58 18 56Z" fill="#6a4a2a"/>
    <!-- Lighter chest patch -->
    <path d="M24 42 Q32 46 40 42 L40 52 Q32 54 24 52Z" fill="#8a6a4a"/>
  </g>
</svg>