<svg xmlns="http://www.w3.org/2000/svg" viewBox="0 0 64 64" width="64" height="64">
  <circle cx="32" cy="32" r="31" fill="#1a2020"/>
  <g fill="#d0c8b0">
    <!-- Head -->
    <path d="M22 20 L40 16 L46 20 L46 28 L42 34 L38 36 L26 36 L20 32 L18 26Z" fill="#7a7a78"/>
    <!-- Ears -->
    <path d="M24 16 L22 10 L28 16Z" fill="#8a8a88"/>
    <path d="M40 14 L42 8 L44 14Z" fill="#8a8a88"/>
    <!-- Muzzle -->
    <path d="M28 30 L26 36 L32 40 L38 36 L36 30Z" fill="#9a9a98"/>
    <!-- Nose -->
    <ellipse cx="32" cy="34" rx="3" ry="2" fill="#1a2020"/>
    <!-- Eyes -->
    <ellipse cx="26" cy="24" rx="2.5" ry="2.5" fill="#c4a63a"/>
    <circle cx="26" cy="24" r="1.2" fill="#1a2020"/>
    <ellipse cx="38" cy="22" rx="2.5" ry="2.5" fill="#c4a63a"/>
    <circle cx="38" cy="22" r="1.2" fill="#1a2020"/>
    <!-- Mouth -->
    <path d="M32 40 L30 42 M32 40 L34 42" fill="none" stroke="#1a2020" stroke-width="0.8"/>
    <!-- Fur ruff -->
    <path d="M18 30 Q16 36 18 40 Q22 44 28 44 Q32 46 36 44 Q42 44 46 40 Q48 36 46 30" fill="#6a6a68"/>
    <!-- Neck/chest -->
    <path d="M20 40 Q32 50 44 40 L44 56 Q32 58 20 56Z" fill="#7a7a78"/>
  </g>
</svg>