<svg xmlns="http://www.w3.org/2000/svg" viewBox="0 0 64 64" width="64" height="64">
  <circle cx="32" cy="32" r="31" fill="#1a2020"/>
  <g fill="#d0c8b0">
    <!-- Head shape -->
    <ellipse cx="32" cy="24" rx="14" ry="12"/>
    <!-- Brow ridge -->
    <path d="M18 20 Q32 14 46 20 L46 24 Q32 18 18 24Z" fill="#b0a890"/>
    <!-- Face/muzzle -->
    <ellipse cx="32" cy="28" rx="8" ry="6" fill="#8a7e6a"/>
    <!-- Nostrils -->
    <ellipse cx="29" cy="28" rx="2" ry="1.5" fill="#1a2020"/>
    <ellipse cx="35" cy="28" rx="2" ry="1.5" fill="#1a2020"/>
    <!-- Eyes -->
    <ellipse cx="25" cy="22" rx="2.5" ry="1.5" fill="#1a2020"/>
    <ellipse cx="39" cy="22" rx="2.5" ry="1.5" fill="#1a2020"/>
    <!-- Shoulders/chest -->
    <path d="M12 36 Q16 30 22 32 L22 36 Q27 34 32 36 Q37 34 42 36 L42 32 Q48 30 52 36 L52 52 Q42 56 32 56 Q22 56 12 52Z" fill="#a09480"/>
    <!-- Chest highlight -->
    <path d="M24 40 Q32 38 40 40 L40 50 Q32 52 24 50Z" fill="#b0a890"/>
  </g>
</svg>