<svg xmlns="http://www.w3.org/2000/svg" viewBox="0 0 64 64" width="64" height="64">
  <circle cx="32" cy="32" r="31" fill="#1a2020"/>
  <g fill="#d0c8b0">
    <!-- Antlers - left -->
    <path d="M22 26 L14 14 L10 10 M14 14 L12 8 M14 14 L18 10 M18 20 L12 18" fill="none" stroke="#f0ead0" stroke-width="1.8" stroke-linecap="round"/>
    <!-- Antlers - right -->
    <path d="M42 26 L50 14 L54 10 M50 14 L52 8 M50 14 L46 10 M46 20 L52 18" fill="none" stroke="#f0ead0" stroke-width="1.8" stroke-linecap="round"/>
    <!-- Head -->
    <ellipse cx="32" cy="32" rx="10" ry="12"/>
    <!-- Snout -->
    <ellipse cx="32" cy="40" rx="5" ry="4" fill="#b0a890"/>
    <!-- Nose -->
    <ellipse cx="32" cy="38" rx="2.5" ry="1.5" fill="#4a3a2a"/>
    <!-- Eyes -->
    <ellipse cx="26" cy="30" rx="2" ry="2.5" fill="#4a3a2a"/>
    <ellipse cx="38" cy="30" rx="2" ry="2.5" fill="#4a3a2a"/>
    <!-- Eye shine -->
    <circle cx="26.5" cy="29.5" r="0.8" fill="#8a7a5a"/>
    <circle cx="38.5" cy="29.5" r="0.8" fill="#8a7a5a"/>
    <!-- Ears -->
    <path d="M20 26 L16 22 L22 26Z" fill="#c0b8a0"/>
    <path d="M44 26 L48 22 L42 26Z" fill="#c0b8a0"/>
    <!-- Neck/chest -->
    <path d="M22 42 Q32 48 42 42 L42 56 Q32 58 22 56Z" fill="#c0b8a0"/>
  </g>
</svg>