<svg xmlns="http://www.w3.org/2000/svg" viewBox="0 0 64 64" width="64" height="64">
  <circle cx="32" cy="32" r="31" fill="#1a2020"/>
  <g fill="#d0c8b0">
    <!-- Head feathers/crest -->
    <path d="M26 16 L24 10 L28 14 L32 8 L36 14 L40 10 L38 16" fill="#e8e0c8"/>
    <!-- Head -->
    <path d="M22 20 Q32 14 42 20 L42 30 Q38 34 32 36 Q26 34 22 30Z" fill="#e8e0c8"/>
    <!-- Brow -->
    <path d="M22 22 Q32 18 42 22" fill="none" stroke="#c0b8a0" stroke-width="1.5"/>
    <!-- Eyes - fierce -->
    <ellipse cx="27" cy="24" rx="2.5" ry="2" fill="#c4a63a"/>
    <circle cx="27" cy="24" r="1.2" fill="#1a2020"/>
    <ellipse cx="37" cy="24" rx="2.5" ry="2" fill="#c4a63a"/>
    <circle cx="37" cy="24" r="1.2" fill="#1a2020"/>
    <!-- Beak -->
    <path d="M28 30 L32 28 L36 30 L32 38Z" fill="#c4a63a"/>
    <!-- Beak hook -->
    <path d="M31 36 L32 40 L33 36" fill="#a08a2a"/>
    <!-- Nostril -->
    <circle cx="31" cy="32" r="0.6" fill="#1a2020"/>
    <!-- Neck feathers -->
    <path d="M22 34 Q32 42 42 34 L44 44 Q32 50 20 44Z" fill="#c0b8a0"/>
    <!-- Chest feathers -->
    <path d="M20 44 Q32 52 44 44 L44 56 Q32 60 20 56Z" fill="#b0a890"/>
    <!-- Feather texture -->
    <path d="M26 46 Q32 48 38 46 M24 50 Q32 52 40 50" fill="none" stroke="#9a9280" stroke-width="0.8"/>
  </g>
</svg>