<svg xmlns="http://www.w3.org/2000/svg" viewBox="0 0 64 64" width="64" height="64">
  <circle cx="32" cy="32" r="31" fill="#1a2020"/>
  <g fill="#d0c8b0">
    <!-- Body -->
    <ellipse cx="32" cy="36" rx="10" ry="8" fill="#4a3a2a"/>
    <!-- Head -->
    <ellipse cx="32" cy="24" rx="6" ry="5" fill="#5a4a3a"/>
    <!-- Bald head/neck -->
    <path d="M28 20 Q32 16 36 20" fill="#d8707a"/>
    <!-- Hooked beak -->
    <path d="M30 28 L28 32 L32 30 L36 32 L34 28Z" fill="#8a7a3a"/>
    <!-- Eye -->
    <circle cx="28" cy="24" r="2" fill="#c4a63a"/>
    <circle cx="28" cy="24" r="1" fill="#1a2020"/>
    <circle cx="36" cy="24" r="2" fill="#c4a63a"/>
    <circle cx="36" cy="24" r="1" fill="#1a2020"/>
    <!-- Neck ruff/collar -->
    <path d="M24 28 Q32 32 40 28 Q42 30 40 32 Q32 36 24 32 Q22 30 24 28Z" fill="#6a5a4a"/>
    <!-- Wings spread -->
    <path d="M22 34 L8 22 L6 28 L10 32 L22 36Z" fill="#3a2a1a"/>
    <path d="M42 34 L56 22 L58 28 L54 32 L42 36Z" fill="#3a2a1a"/>
    <!-- Wing feather lines -->
    <path d="M10 26 L16 32 M8 24 L14 30 M12 30 L18 34" fill="none" stroke="#4a3a2a" stroke-width="0.8"/>
    <path d="M54 26 L48 32 M56 24 L50 30 M52 30 L46 34" fill="none" stroke="#4a3a2a" stroke-width="0.8"/>
    <!-- Tail feathers -->
    <path d="M28 44 L24 54 L28 50 L32 56 L36 50 L40 54 L36 44" fill="#3a2a1a"/>
  </g>
</svg>