<svg xmlns="http://www.w3.org/2000/svg" viewBox="0 0 64 64" width="64" height="64">
  <circle cx="32" cy="32" r="31" fill="#1a2020"/>
  <g fill="#d0c8b0">
    <!-- Mane -->
    <circle cx="32" cy="28" r="18" fill="#8a6a2a"/>
    <!-- Mane texture rays -->
    <path d="M32 10 L34 14 M20 14 L24 18 M44 14 L40 18 M14 24 L18 26 M50 24 L46 26 M14 36 L18 34 M50 36 L46 34" fill="none" stroke="#6a4a1a" stroke-width="1.5"/>
    <!-- Face -->
    <ellipse cx="32" cy="30" rx="10" ry="10" fill="#c4a63a"/>
    <!-- Muzzle -->
    <ellipse cx="32" cy="36" rx="5" ry="4" fill="#dac87a"/>
    <!-- Nose -->
    <path d="M30 34 L32 32 L34 34 L32 36Z" fill="#3a2a1a"/>
    <!-- Eyes -->
    <ellipse cx="26" cy="28" rx="2.5" ry="2" fill="#c4a63a"/>
    <circle cx="26" cy="28" r="1.2" fill="#1a2020"/>
    <ellipse cx="38" cy="28" rx="2.5" ry="2" fill="#c4a63a"/>
    <circle cx="38" cy="28" r="1.2" fill="#1a2020"/>
    <!-- Mouth -->
    <path d="M29 38 Q32 41 35 38" fill="none" stroke="#3a2a1a" stroke-width="1"/>
    <!-- Whisker dots -->
    <circle cx="26" cy="36" r="0.6" fill="#3a2a1a"/>
    <circle cx="28" cy="37" r="0.6" fill="#3a2a1a"/>
    <circle cx="36" cy="37" r="0.6" fill="#3a2a1a"/>
    <circle cx="38" cy="36" r="0.6" fill="#3a2a1a"/>
    <!-- Chin -->
    <path d="M26 42 Q32 46 38 42" fill="#7a5a1a"/>
  </g>
</svg>