<svg xmlns="http://www.w3.org/2000/svg" viewBox="0 0 64 64" width="64" height="64">
  <circle cx="32" cy="32" r="31" fill="#1a2020"/>
  <g fill="#d0c8b0">
    <!-- Body -->
    <ellipse cx="34" cy="34" rx="18" ry="14"/>
    <!-- Head -->
    <ellipse cx="18" cy="26" rx="10" ry="11"/>
    <!-- Trunk -->
    <path d="M14 34 Q10 40 12 46 Q14 50 16 48 Q14 44 16 38" fill="none" stroke="#d0c8b0" stroke-width="3" stroke-linecap="round"/>
    <!-- Tusks -->
    <path d="M16 30 Q8 36 10 42 Q12 44 14 42" fill="none" stroke="#f0ead0" stroke-width="2" stroke-linecap="round"/>
    <path d="M20 32 Q14 38 16 42" fill="none" stroke="#f0ead0" stroke-width="1.5" stroke-linecap="round"/>
    <!-- Eye -->
    <circle cx="16" cy="24" r="1.5" fill="#1a2020"/>
    <!-- Ear -->
    <ellipse cx="24" cy="22" rx="4" ry="6" fill="#b0a890"/>
    <!-- Fur texture on top -->
    <path d="M26 20 Q30 16 34 20 Q38 16 42 20" fill="none" stroke="#b0a890" stroke-width="1.5"/>
    <!-- Legs -->
    <rect x="22" y="44" width="5" height="10" rx="2" fill="#b0a890"/>
    <rect x="38" y="44" width="5" height="10" rx="2" fill="#b0a890"/>
  </g>
</svg>