<svg xmlns="http://www.w3.org/2000/svg" viewBox="0 0 64 64" width="64" height="64">
  <circle cx="32" cy="32" r="31" fill="#1a2020"/>
  <g fill="#d0c8b0">
    <!-- Body in water -->
    <ellipse cx="36" cy="42" rx="14" ry="8" fill="#6a8a9a"/>
    <!-- Flippers -->
    <path d="M24 40 L18 46 L22 44" fill="#6a8a9a"/>
    <path d="M48 40 L54 46 L50 44" fill="#6a8a9a"/>
    <!-- Long neck -->
    <path d="M30 38 Q26 30 24 22 Q22 16 24 12" fill="none" stroke="#7a9aaa" stroke-width="5" stroke-linecap="round"/>
    <!-- Head -->
    <ellipse cx="24" cy="12" rx="6" ry="4" fill="#7a9aaa"/>
    <!-- Eye -->
    <circle cx="22" cy="11" r="1.5" fill="#1a2020"/>
    <!-- Mouth -->
    <path d="M18 12 L18 14" fill="none" stroke="#1a2020" stroke-width="0.8"/>
    <!-- Belly lighter -->
    <path d="M26 44 Q36 48 46 44 Q46 46 36 48 Q26 46 26 44Z" fill="#8aaaba"/>
    <!-- Tail flipper -->
    <path d="M48 42 L54 38 L56 42 L52 44Z" fill="#6a8a9a"/>
    <!-- Water ripple hint -->
    <path d="M16 50 Q24 48 32 50 Q40 52 48 50" fill="none" stroke="#4a6a7a" stroke-width="0.8"/>
  </g>
</svg>