<svg xmlns="http://www.w3.org/2000/svg" viewBox="0 0 64 64" width="64" height="64">
  <circle cx="32" cy="32" r="31" fill="#1a2020"/>
  <g fill="#e8e4dc">
    <!-- Head -->
    <ellipse cx="32" cy="28" rx="14" ry="13"/>
    <!-- Ears -->
    <ellipse cx="20" cy="16" rx="4" ry="6"/>
    <ellipse cx="44" cy="16" rx="4" ry="6"/>
    <!-- Inner ears -->
    <ellipse cx="20" cy="16" rx="2.5" ry="4" fill="#c0b8aa"/>
    <ellipse cx="44" cy="16" rx="2.5" ry="4" fill="#c0b8aa"/>
    <!-- Muzzle -->
    <ellipse cx="32" cy="34" rx="8" ry="6" fill="#d0c8bc"/>
    <!-- Nose -->
    <ellipse cx="32" cy="32" rx="4" ry="3" fill="#2a2a2a"/>
    <!-- Eyes -->
    <ellipse cx="24" cy="26" rx="2.5" ry="2" fill="#1a2020"/>
    <ellipse cx="40" cy="26" rx="2.5" ry="2" fill="#1a2020"/>
    <!-- Eye shine -->
    <circle cx="25" cy="25.5" r="0.8" fill="#4a5a6a"/>
    <circle cx="41" cy="25.5" r="0.8" fill="#4a5a6a"/>
    <!-- Mouth -->
    <path d="M28 37 Q32 40 36 37" fill="none" stroke="#1a2020" stroke-width="1"/>
    <!-- Chest suggestion -->
    <path d="M18 40 Q32 48 46 40 L46 56 Q32 58 18 56Z" fill="#d8d0c4"/>
  </g>
</svg>