<svg xmlns="http://www.w3.org/2000/svg" viewBox="0 0 64 64" width="64" height="64">
  <circle cx="32" cy="32" r="31" fill="#1a2020"/>
  <g fill="#d0c8b0">
    <!-- Fluffy wool body -->
    <circle cx="32" cy="36" r="16" fill="#e8e4dc"/>
    <!-- Wool texture puffs -->
    <circle cx="24" cy="30" r="4" fill="#f0ece4"/>
    <circle cx="40" cy="30" r="4" fill="#f0ece4"/>
    <circle cx="20" cy="36" r="3.5" fill="#f0ece4"/>
    <circle cx="44" cy="36" r="3.5" fill="#f0ece4"/>
    <circle cx="24" cy="42" r="3.5" fill="#f0ece4"/>
    <circle cx="40" cy="42" r="3.5" fill="#f0ece4"/>
    <circle cx="32" cy="28" r="4" fill="#f0ece4"/>
    <circle cx="32" cy="44" r="3" fill="#f0ece4"/>
    <!-- Face -->
    <ellipse cx="32" cy="26" rx="7" ry="6" fill="#3a3a3a"/>
    <!-- Ears -->
    <path d="M24 22 L20 18 L26 22Z" fill="#3a3a3a"/>
    <path d="M40 22 L44 18 L38 22Z" fill="#3a3a3a"/>
    <!-- Eyes -->
    <ellipse cx="29" cy="24" rx="2" ry="2.5" fill="#c4a63a"/>
    <circle cx="29" cy="24.5" r="1.5" fill="#1a2020"/>
    <ellipse cx="35" cy="24" rx="2" ry="2.5" fill="#c4a63a"/>
    <circle cx="35" cy="24.5" r="1.5" fill="#1a2020"/>
    <!-- Nose -->
    <ellipse cx="32" cy="28" rx="1.5" ry="1" fill="#2a2020"/>
    <!-- Mouth -->
    <path d="M30 30 Q32 32 34 30" fill="none" stroke="#2a2020" stroke-width="0.7"/>
    <!-- Legs -->
    <rect x="24" y="48" width="3" height="6" rx="1" fill="#3a3a3a"/>
    <rect x="37" y="48" width="3" height="6" rx="1" fill="#3a3a3a"/>
  </g>
</svg>