<svg xmlns="http://www.w3.org/2000/svg" viewBox="0 0 64 64" width="64" height="64">
  <circle cx="32" cy="32" r="31" fill="#1a2020"/>
  <g fill="#d0c8b0">
    <!-- T-Rex head with open jaws -->
    <path d="M18 16 L38 12 L44 16 L48 14 L50 18 L48 22 L44 20 L42 24 L46 28 L44 32 L40 30 L36 32 L32 30 L28 32 L24 28 L20 30 L18 26 L22 24 L20 20 Z" />
    <!-- Lower jaw -->
    <path d="M20 30 L28 34 L36 34 L42 32 L46 34 L44 38 L38 40 L28 40 L20 36 Z"/>
    <!-- Teeth -->
    <path d="M24 28 L26 31 L28 28 M30 29 L32 32 L34 29 M36 30 L38 33 L40 30" fill="#1a2020" stroke="#d0c8b0" stroke-width="0.5"/>
    <!-- Body hint -->
    <path d="M20 36 L16 42 L18 48 L24 50 L30 48 L28 42 L24 38Z"/>
    <!-- Tiny arm -->
    <path d="M26 38 L28 40 L27 42" fill="none" stroke="#d0c8b0" stroke-width="1.5" stroke-linecap="round"/>
    <!-- Eye -->
    <circle cx="36" cy="20" r="2" fill="#c4463a"/>
  </g>
</svg>