<svg xmlns="http://www.w3.org/2000/svg" viewBox="0 0 64 64" width="64" height="64">
  <circle cx="32" cy="32" r="31" fill="#1a2020"/>
  <g fill="#d0c8b0">
    <!-- Head -->
    <ellipse cx="32" cy="28" rx="14" ry="13" fill="#c48a2a"/>
    <!-- Stripes -->
    <path d="M22 18 L24 24 M20 22 L22 28 M18 28 L20 32 M42 18 L40 24 M44 22 L42 28 M46 28 L44 32" fill="none" stroke="#2a2020" stroke-width="2" stroke-linecap="round"/>
    <!-- White patches around eyes/cheeks -->
    <path d="M22 28 Q20 34 24 36 Q28 38 30 34" fill="#e8d8a0"/>
    <path d="M42 28 Q44 34 40 36 Q36 38 34 34" fill="#e8d8a0"/>
    <!-- Muzzle -->
    <ellipse cx="32" cy="34" rx="6" ry="5" fill="#e8d8a0"/>
    <!-- Nose -->
    <path d="M30 32 L32 30 L34 32 L32 34Z" fill="#d8707a"/>
    <!-- Eyes -->
    <ellipse cx="26" cy="26" rx="2.5" ry="2.5" fill="#c4a63a"/>
    <circle cx="26" cy="26" r="1.2" fill="#1a2020"/>
    <ellipse cx="38" cy="26" rx="2.5" ry="2.5" fill="#c4a63a"/>
    <circle cx="38" cy="26" r="1.2" fill="#1a2020"/>
    <!-- Ears -->
    <path d="M20 18 L16 12 L22 16Z" fill="#c48a2a"/>
    <path d="M44 18 L48 12 L42 16Z" fill="#c48a2a"/>
    <path d="M20 18 L18 14 L22 16Z" fill="#2a2020"/>
    <path d="M44 18 L46 14 L42 16Z" fill="#2a2020"/>
    <!-- Mouth -->
    <path d="M29 36 Q32 39 35 36" fill="none" stroke="#2a2020" stroke-width="0.8"/>
    <!-- Chin stripes -->
    <path d="M28 40 L30 44 M32 38 L32 44 M36 40 L34 44" fill="none" stroke="#2a2020" stroke-width="1" stroke-linecap="round"/>
    <!-- Chest -->
    <path d="M20 40 Q32 46 44 40 L44 56 Q32 58 20 56Z" fill="#c48a2a"/>
    <path d="M24 42 Q32 46 40 42 L38 52 Q32 54 26 52Z" fill="#e8d8a0"/>
  </g>
</svg>