<svg xmlns="http://www.w3.org/2000/svg" viewBox="0 0 64 64" width="64" height="64">
  <circle cx="32" cy="32" r="31" fill="#1a2020"/>
  <g fill="#d0c8b0">
    <!-- Frill -->
    <path d="M20 12 Q32 6 44 12 Q50 18 48 26 L16 26 Q14 18 20 12Z"/>
    <!-- Frill scallops -->
    <path d="M22 12 Q26 8 30 12 M30 10 Q34 6 38 10 M38 10 Q42 8 44 12" fill="none" stroke="#b0a890" stroke-width="1.5"/>
    <!-- Head -->
    <path d="M18 26 L46 26 L44 38 L32 44 L20 38Z" fill="#c0b8a0"/>
    <!-- Beak -->
    <path d="M28 40 L32 48 L36 40Z" fill="#a09480"/>
    <!-- Horns - brow -->
    <path d="M22 24 L16 14" fill="none" stroke="#f0ead0" stroke-width="2.5" stroke-linecap="round"/>
    <path d="M42 24 L48 14" fill="none" stroke="#f0ead0" stroke-width="2.5" stroke-linecap="round"/>
    <!-- Nose horn -->
    <path d="M32 36 L32 30" fill="none" stroke="#f0ead0" stroke-width="2" stroke-linecap="round"/>
    <!-- Eyes -->
    <circle cx="25" cy="32" r="2" fill="#1a2020"/>
    <circle cx="39" cy="32" r="2" fill="#1a2020"/>
    <!-- Body hint -->
    <ellipse cx="32" cy="54" rx="14" ry="6" fill="#b0a890"/>
  </g>
</svg>